<?xml version="1.0" encoding="UTF-8" standalone="no"?>
<svg height="100%" stroke-miterlimit="10" style="fill-rule:nonzero;clip-rule:evenodd;stroke-linecap:round;stroke-linejoin:round;" version="1.1" viewBox="448.392 236.808 2485.39 325.261" width="100%" xml:space="preserve" xmlns="http://www.w3.org/2000/svg" xmlns:vectornator="http://vectornator.io" xmlns:xlink="http://www.w3.org/1999/xlink">
<defs>
<linearGradient gradientTransform="matrix(2006.16 0 0 2006.16 606.611 393.586)" gradientUnits="userSpaceOnUse" id="LinearGradient" x1="0" x2="1" y1="0" y2="0">
<stop offset="0" stop-color="#ec4899"/>
<stop offset="1" stop-color="#9f12a5"/>
</linearGradient>
</defs>
<clipPath id="ArtboardFrame">
<rect height="325.261" width="2485.39" x="448.392" y="236.808"/>
</clipPath>
<g clip-path="url(#ArtboardFrame)" id="Layer" vectornator:layerName="Layer">
<g opacity="1" vectornator:layerName="Group 1">
<path d="M2735.24 254.308L2751.91 258.085L2686.98 544.569L2670.31 540.792L2735.24 254.308Z" fill="#9a1794" fill-rule="nonzero" opacity="1" stroke="#9a1794" stroke-linecap="butt" stroke-linejoin="round" stroke-width="35" vectornator:layerName="Rectangle 2"/>
<path d="M545.429 256.847C545.434 256.837 545.449 256.841 545.449 256.852L545.68 291.738C545.68 291.739 545.68 291.741 545.679 291.743L485.601 399.761C485.599 399.764 485.599 399.768 485.601 399.772L547.105 507.134C547.106 507.136 547.106 507.138 547.106 507.14L547.337 542.025C547.337 542.036 547.323 542.04 547.317 542.03L465.895 399.902C465.893 399.899 465.893 399.895 465.895 399.892L545.429 256.847Z" fill="#ec4899" fill-rule="nonzero" opacity="1" stroke="#ec4899" stroke-linecap="butt" stroke-linejoin="round" stroke-width="35" vectornator:layerName="Curve 2"/>
<path d="M2836.75 256.847C2836.74 256.837 2836.73 256.841 2836.73 256.852L2836.49 291.738C2836.49 291.739 2836.49 291.741 2836.5 291.743L2896.57 399.761C2896.57 399.764 2896.57 399.768 2896.57 399.772L2835.07 507.134C2835.07 507.136 2835.07 507.138 2835.07 507.14L2834.84 542.025C2834.84 542.036 2834.85 542.04 2834.86 542.03L2916.28 399.902C2916.28 399.899 2916.28 399.895 2916.28 399.892L2836.75 256.847Z" fill="#9a1794" fill-rule="nonzero" opacity="1" stroke="#9a1794" stroke-linecap="butt" stroke-linejoin="round" stroke-width="35" vectornator:layerName="Curve 3"/>
<path d="M752.555 536.877C731.58 536.877 712.184 533.528 694.367 526.831C676.55 520.134 661.135 510.594 648.12 498.211C635.105 485.828 624.933 471.233 617.604 454.427C610.275 437.622 606.611 419.11 606.611 398.893C606.611 378.675 610.275 360.164 617.604 343.358C624.933 326.552 635.105 311.958 648.12 299.575C661.135 287.192 676.55 277.651 694.367 270.954C712.184 264.257 731.58 260.909 752.555 260.909C777.069 260.909 798.992 265.205 818.325 273.797C837.658 282.39 853.769 294.773 866.657 310.947L818.894 354.162C810.301 344.053 800.887 336.345 790.652 331.038C780.417 325.731 768.982 323.077 756.346 323.077C745.479 323.077 735.497 324.846 726.399 328.385C717.301 331.923 709.53 337.04 703.086 343.737C696.641 350.434 691.587 358.458 687.923 367.808C684.258 377.159 682.426 387.52 682.426 398.893C682.426 410.265 684.258 420.626 687.923 429.977C691.587 439.328 696.641 447.351 703.086 454.048C709.53 460.745 717.301 465.863 726.399 469.401C735.497 472.939 745.479 474.708 756.346 474.708C768.982 474.708 780.417 472.054 790.652 466.747C800.887 461.44 810.301 453.732 818.894 443.624L866.657 486.838C853.769 502.76 837.658 515.08 818.325 523.798C798.992 532.517 777.069 536.877 752.555 536.877ZM982.097 534.981C959.605 534.981 939.64 530.432 922.203 521.334C904.765 512.237 891.055 499.664 881.073 483.616C871.09 467.569 866.099 449.184 866.099 428.461C866.099 407.738 871.09 389.416 881.073 373.495C891.055 357.573 904.765 345.127 922.203 336.156C939.64 327.184 959.605 322.698 982.097 322.698C1004.59 322.698 1024.62 327.184 1042.18 336.156C1059.74 345.127 1073.45 357.573 1083.31 373.495C1093.17 389.416 1098.09 407.738 1098.09 428.461C1098.09 449.184 1093.17 467.569 1083.31 483.616C1073.45 499.664 1059.74 512.237 1042.18 521.334C1024.62 530.432 1004.59 534.981 982.097 534.981ZM982.097 477.741C990.436 477.741 997.828 475.845 1004.27 472.054C1010.72 468.264 1015.83 462.641 1019.63 455.186C1023.42 447.73 1025.31 438.822 1025.31 428.461C1025.31 418.099 1023.42 409.317 1019.63 402.115C1015.83 394.912 1010.72 389.416 1004.27 385.625C997.828 381.834 990.436 379.939 982.097 379.939C974.01 379.939 966.744 381.834 960.3 385.625C953.855 389.416 948.675 394.912 944.758 402.115C940.84 409.317 938.882 418.099 938.882 428.461C938.882 438.822 940.84 447.73 944.758 455.186C948.675 462.641 953.855 468.264 960.3 472.054C966.744 475.845 974.01 477.741 982.097 477.741ZM1212.78 534.981C1194.07 534.981 1177.08 530.622 1161.79 521.903C1146.5 513.184 1134.31 500.927 1125.21 485.133C1116.11 469.338 1111.56 450.447 1111.56 428.461C1111.56 406.727 1116.11 387.963 1125.21 372.168C1134.31 356.373 1146.5 344.179 1161.79 335.587C1177.08 326.995 1194.07 322.698 1212.78 322.698C1230.47 322.698 1245.44 326.489 1257.7 334.071C1269.95 341.652 1279.24 353.277 1285.56 368.946C1291.88 384.614 1295.03 404.453 1295.03 428.461C1295.03 452.974 1292 473.065 1285.94 488.734C1279.87 504.402 1270.77 516.027 1258.64 523.609C1246.51 531.19 1231.22 534.981 1212.78 534.981ZM1227.94 477.741C1236.03 477.741 1243.29 475.845 1249.74 472.054C1256.18 468.264 1261.3 462.641 1265.09 455.186C1268.88 447.73 1270.77 438.822 1270.77 428.461C1270.77 418.099 1268.88 409.317 1265.09 402.115C1261.3 394.912 1256.18 389.416 1249.74 385.625C1243.29 381.834 1236.03 379.939 1227.94 379.939C1219.6 379.939 1212.21 381.834 1205.76 385.625C1199.32 389.416 1194.2 394.912 1190.41 402.115C1186.62 409.317 1184.72 418.099 1184.72 428.461C1184.72 438.822 1186.62 447.73 1190.41 455.186C1194.2 462.641 1199.32 468.264 1205.76 472.054C1212.21 475.845 1219.6 477.741 1227.94 477.741ZM1273.05 531.569L1273.05 496.315L1273.43 428.461L1269.64 360.606L1269.64 250.295L1341.66 250.295L1341.66 531.569L1273.05 531.569ZM1505.24 531.569L1505.24 493.283L1500.32 483.806L1500.32 413.298C1500.32 401.925 1496.84 393.143 1489.89 386.952C1482.94 380.76 1471.88 377.664 1456.72 377.664C1446.87 377.664 1436.88 379.244 1426.77 382.403C1416.67 385.562 1408.07 389.921 1401 395.481L1376.74 346.58C1388.36 338.999 1402.32 333.123 1418.62 328.953C1434.92 324.783 1451.16 322.698 1467.34 322.698C1500.69 322.698 1526.53 330.343 1544.86 345.632C1563.18 360.922 1572.34 384.867 1572.34 417.467L1572.34 531.569L1505.24 531.569ZM1444.59 534.981C1428.16 534.981 1414.26 532.201 1402.89 526.641C1391.52 521.082 1382.86 513.5 1376.93 503.897C1370.99 494.294 1368.02 483.553 1368.02 471.675C1368.02 459.04 1371.24 448.109 1377.68 438.885C1384.13 429.661 1394.05 422.585 1407.44 417.657C1420.84 412.729 1438.15 410.265 1459.38 410.265L1507.9 410.265L1507.9 447.794L1469.23 447.794C1457.61 447.794 1449.46 449.689 1444.78 453.48C1440.11 457.27 1437.77 462.325 1437.77 468.643C1437.77 474.961 1440.17 480.015 1444.97 483.806C1449.77 487.597 1456.34 489.492 1464.68 489.492C1472.52 489.492 1479.66 487.533 1486.1 483.616C1492.54 479.699 1497.28 473.697 1500.32 465.61L1510.17 492.146C1506.38 506.298 1498.99 516.975 1488 524.177C1477 531.38 1462.53 534.981 1444.59 534.981ZM1613.1 531.569L1613.1 266.216L1821.21 266.216L1821.21 324.215L1688.16 324.215L1688.16 531.569L1613.1 531.569ZM1682.85 440.591L1682.85 382.592L1805.29 382.592L1805.29 440.591L1682.85 440.591ZM1943.48 534.981C1920.99 534.981 1901.02 530.432 1883.58 521.334C1866.15 512.237 1852.44 499.664 1842.45 483.616C1832.47 467.569 1827.48 449.184 1827.48 428.461C1827.48 407.738 1832.47 389.416 1842.45 373.495C1852.44 357.573 1866.15 345.127 1883.58 336.156C1901.02 327.184 1920.99 322.698 1943.48 322.698C1965.97 322.698 1986 327.184 2003.56 336.156C2021.12 345.127 2034.83 357.573 2044.69 373.495C2054.55 389.416 2059.47 407.738 2059.47 428.461C2059.47 449.184 2054.55 467.569 2044.69 483.616C2034.83 499.664 2021.12 512.237 2003.56 521.334C1986 530.432 1965.97 534.981 1943.48 534.981ZM1943.48 477.741C1951.82 477.741 1959.21 475.845 1965.65 472.054C1972.1 468.264 1977.21 462.641 1981.01 455.186C1984.8 447.73 1986.69 438.822 1986.69 428.461C1986.69 418.099 1984.8 409.317 1981.01 402.115C1977.21 394.912 1972.1 389.416 1965.65 385.625C1959.21 381.834 1951.82 379.939 1943.48 379.939C1935.39 379.939 1928.12 381.834 1921.68 385.625C1915.24 389.416 1910.05 394.912 1906.14 402.115C1902.22 409.317 1900.26 418.099 1900.26 428.461C1900.26 438.822 1902.22 447.73 1906.14 455.186C1910.05 462.641 1915.24 468.264 1921.68 472.054C1928.12 475.845 1935.39 477.741 1943.48 477.741ZM2084.69 531.569L2084.69 250.295L2156.72 250.295L2156.72 531.569L2084.69 531.569ZM2255.1 493.662L2256.99 407.611L2340.77 326.11L2426.06 326.11L2333.19 422.016L2296.42 451.584L2255.1 493.662ZM2195.2 531.569L2195.2 250.295L2267.23 250.295L2267.23 531.569L2195.2 531.569ZM2346.08 531.569L2283.15 452.722L2327.88 397.376L2433.26 531.569L2346.08 531.569ZM2511.18 534.981C2493.74 534.981 2476.74 532.959 2460.19 528.916C2443.64 524.872 2430.31 519.818 2420.2 513.753L2441.8 464.473C2451.41 470.285 2462.65 474.898 2475.54 478.309C2488.43 481.721 2501.07 483.427 2513.45 483.427C2525.58 483.427 2533.98 482.163 2538.66 479.636C2543.33 477.109 2545.67 473.697 2545.67 469.401C2545.67 465.357 2543.46 462.388 2539.04 460.493C2534.62 458.597 2528.8 457.144 2521.6 456.133C2514.4 455.122 2506.5 453.985 2497.91 452.722C2489.32 451.458 2480.66 449.752 2471.94 447.604C2463.22 445.456 2455.26 442.171 2448.06 437.748C2440.86 433.325 2435.11 427.323 2430.81 419.742C2426.52 412.16 2424.37 402.557 2424.37 390.932C2424.37 377.791 2428.22 366.103 2435.93 355.868C2443.64 345.632 2454.95 337.546 2469.86 331.607C2484.77 325.668 2502.96 322.698 2524.44 322.698C2538.85 322.698 2553.44 324.151 2568.23 327.058C2583.01 329.964 2595.46 334.323 2605.57 340.136L2583.96 389.037C2573.85 383.224 2563.74 379.244 2553.63 377.096C2543.52 374.948 2533.92 373.874 2524.82 373.874C2512.69 373.874 2504.16 375.264 2499.23 378.044C2494.31 380.823 2491.84 384.235 2491.84 388.279C2491.84 392.322 2493.99 395.418 2498.29 397.566C2502.58 399.714 2508.33 401.357 2515.54 402.494C2522.74 403.631 2530.63 404.768 2539.23 405.906C2547.82 407.043 2556.48 408.749 2565.19 411.023C2573.91 413.298 2581.87 416.646 2589.08 421.069C2596.28 425.491 2602.03 431.43 2606.32 438.885C2610.62 446.34 2612.77 455.881 2612.77 467.506C2612.77 480.141 2608.91 491.514 2601.21 501.622C2593.5 511.731 2582.13 519.818 2567.09 525.883C2552.05 531.949 2533.41 534.981 2511.18 534.981Z" fill="url(#LinearGradient)" fill-rule="nonzero" opacity="1" stroke="none" vectornator:layerName="Curve 4"/>
</g>
</g>
</svg>