<?xml version="1.0" encoding="UTF-8"?>
<svg id="Layer_2" data-name="Layer 2" xmlns="http://www.w3.org/2000/svg" viewBox="0 0 704.54 345.54">
  <defs>
    <style>
      .cls-1 {
        fill: #333;
      }

      .cls-2 {
        fill: #4c4c4c;
      }
    </style>
  </defs>
  <g id="Layer_7" data-name="Layer 7">
    <g>
      <path class="cls-1" d="M141.5,1.65l31.3,24.57c3.35,2.63,3.94,7.48,1.31,10.83l-102.26,130.44c-2.18,2.78-2.19,6.7-.02,9.49l102.35,131.87c2.61,3.37,2,8.21-1.36,10.82l-31.22,24.24c-3.36,2.61-8.2,2.01-10.82-1.35L1.63,176.86c-2.18-2.8-2.17-6.72.02-9.51L130.67,2.95c2.63-3.35,7.48-3.94,10.83-1.31Z"/>
      <path class="cls-1" d="M563.03,1.65l-31.3,24.57c-3.35,2.63-3.94,7.48-1.31,10.83l102.26,130.44c2.18,2.78,2.19,6.7.02,9.49l-102.35,131.87c-2.61,3.37-2,8.21,1.36,10.82l31.22,24.24c3.36,2.61,8.2,2.01,10.82-1.35l129.16-165.71c2.18-2.8,2.17-6.72-.02-9.51L573.87,2.95c-2.63-3.35-7.48-3.94-10.83-1.31Z"/>
      <path class="cls-2" d="M338.22,17.89l-37.26,132.19c-.85,3.01-3.6,5.1-6.73,5.1h-42.39c-3.86,0-7,3.13-7,7v35.95c0,3.86,3.13,7,7,7h24.27c4.64,0,8,4.44,6.73,8.91l-28.55,100.24c-1.06,3.72,1.1,7.59,4.81,8.64l34.64,9.86c3.72,1.06,7.58-1.1,8.64-4.81l33.51-117.7c.86-3.01,3.6-5.08,6.73-5.08h58.23c3.86,0,7-3.13,7-7v-36.01c0-3.86-3.13-7-7-7h-40c-4.65,0-8-4.45-6.73-8.92l22.44-78.48c.86-3,3.6-5.07,6.72-5.07l69.33-.05c3.86,0,6.98-3.13,6.99-6.98l.06-36.16c0-3.87-3.14-7.02-7.01-7.01l-107.73.29c-3.13,0-5.87,2.09-6.71,5.1Z"/>
    </g>
  </g>
</svg>