<?xml version="1.0" encoding="UTF-8"?>
<svg id="Layer_2" data-name="Layer 2" xmlns="http://www.w3.org/2000/svg" viewBox="0 0 974.73 195.47">
  <defs>
    <style>
      .cls-1 {
        fill: #e5e5e5;
      }

      .cls-2 {
        fill: #e55ca7;
      }
    </style>
  </defs>
  <g id="Layer_7" data-name="Layer 7">
    <path class="cls-1" d="M80.05.93l17.71,13.9c1.9,1.49,2.23,4.23.74,6.13l-57.84,73.79c-1.23,1.57-1.24,3.79-.01,5.37l57.9,74.59c1.48,1.9,1.13,4.64-.77,6.12l-17.66,13.71c-1.9,1.48-4.64,1.13-6.12-.76L.92,100.04c-1.23-1.58-1.23-3.8,0-5.38L73.92,1.67c1.49-1.9,4.23-2.23,6.13-.74Z"/>
    <path class="cls-1" d="M894.69.93l-17.71,13.9c-1.9,1.49-2.23,4.23-.74,6.13l57.84,73.79c1.23,1.57,1.24,3.79.01,5.37l-57.9,74.59c-1.48,1.9-1.13,4.64.77,6.12l17.66,13.71c1.9,1.48,4.64,1.13,6.12-.76l73.06-93.74c1.23-1.58,1.23-3.8,0-5.38L900.81,1.67c-1.49-1.9-4.23-2.23-6.13-.74Z"/>
    <g>
      <g>
        <path class="cls-1" d="M201.77,157.73c-7.69,3.51-16.54,5.26-26.57,5.26-9.14,0-17.58-1.5-25.32-4.51-7.75-3.01-14.46-7.27-20.14-12.78s-10.14-12.12-13.37-19.8c-3.23-7.69-4.85-16.15-4.85-25.4s1.64-18.05,4.93-25.74c3.29-7.69,7.83-14.23,13.62-19.64,5.79-5.4,12.59-9.55,20.39-12.45,7.8-2.9,16.21-4.35,25.23-4.35,8.36,0,16.57,1.48,24.65,4.43,8.08,2.95,14.62,7.27,19.64,12.95l-19.39,19.38c-2.67-3.68-6.18-6.41-10.53-8.19-4.34-1.78-8.8-2.67-13.37-2.67-5.01,0-9.61.92-13.79,2.76-4.18,1.84-7.77,4.37-10.78,7.6-3.01,3.23-5.35,7.05-7.02,11.45-1.67,4.4-2.51,9.22-2.51,14.46s.83,10.25,2.51,14.71c1.67,4.46,3.98,8.27,6.94,11.45,2.95,3.18,6.49,5.66,10.61,7.44,4.12,1.78,8.63,2.67,13.54,2.67,5.68,0,10.64-1.11,14.87-3.34,4.23-2.23,7.63-5.12,10.19-8.69l19.89,18.72c-5.24,6.02-11.7,10.78-19.39,14.29Z"/>
        <path class="cls-1" d="M318.09,117.88c0,6.8-1.23,12.95-3.68,18.47-2.45,5.51-5.79,10.19-10.03,14.04-4.24,3.84-9.14,6.83-14.71,8.94-5.57,2.11-11.53,3.17-17.88,3.17s-12.17-1.06-17.8-3.17c-5.63-2.12-10.53-5.1-14.71-8.94s-7.49-8.52-9.94-14.04c-2.45-5.52-3.68-11.67-3.68-18.47s1.22-12.92,3.68-18.38c2.45-5.46,5.77-10.08,9.94-13.87,4.18-3.79,9.08-6.68,14.71-8.69,5.62-2.01,11.56-3.01,17.8-3.01s12.31,1,17.88,3.01c5.57,2,10.47,4.9,14.71,8.69,4.23,3.79,7.58,8.41,10.03,13.87,2.45,5.46,3.68,11.59,3.68,18.38ZM291.68,117.88c0-2.67-.45-5.29-1.34-7.85-.89-2.56-2.17-4.82-3.84-6.77-1.67-1.95-3.73-3.54-6.18-4.76-2.45-1.22-5.29-1.84-8.52-1.84s-6.07.61-8.52,1.84c-2.45,1.23-4.49,2.82-6.1,4.76-1.62,1.95-2.84,4.21-3.68,6.77-.84,2.56-1.25,5.18-1.25,7.85s.42,5.29,1.25,7.85c.83,2.56,2.09,4.88,3.76,6.94,1.67,2.06,3.73,3.71,6.18,4.93,2.45,1.23,5.29,1.84,8.52,1.84s6.07-.61,8.52-1.84c2.45-1.22,4.51-2.87,6.18-4.93,1.67-2.06,2.92-4.37,3.76-6.94.84-2.56,1.25-5.18,1.25-7.85Z"/>
        <path class="cls-1" d="M388.44,159.82v-10.86h-.33c-2.67,4.24-6.49,7.49-11.45,9.78-4.96,2.28-10.22,3.43-15.79,3.43-6.24,0-11.81-1.23-16.71-3.68-4.9-2.45-9.05-5.71-12.45-9.78-3.4-4.07-5.99-8.77-7.77-14.12-1.78-5.35-2.67-10.92-2.67-16.71s.92-11.33,2.76-16.63c1.84-5.29,4.45-9.94,7.85-13.95,3.4-4.01,7.52-7.19,12.37-9.53,4.85-2.34,10.28-3.51,16.29-3.51s11.31,1.17,15.54,3.51c4.23,2.34,7.52,4.9,9.86,7.69h.33v-51.97h27.41v126.34h-25.24ZM387.44,118.04c0-2.67-.47-5.29-1.42-7.85-.95-2.56-2.29-4.85-4.01-6.85-1.73-2.01-3.82-3.62-6.27-4.85-2.45-1.22-5.24-1.84-8.36-1.84s-6.07.61-8.52,1.84c-2.45,1.23-4.51,2.82-6.18,4.76-1.67,1.95-2.92,4.21-3.76,6.77-.84,2.56-1.25,5.18-1.25,7.85s.42,5.32,1.25,7.94c.83,2.62,2.09,4.93,3.76,6.93,1.67,2.01,3.73,3.62,6.18,4.85,2.45,1.23,5.29,1.84,8.52,1.84s5.9-.61,8.36-1.84c2.45-1.22,4.54-2.84,6.27-4.85,1.73-2,3.06-4.29,4.01-6.85.95-2.56,1.42-5.18,1.42-7.85Z"/>
        <path class="cls-1" d="M424.2,87.96c4.9-4.68,10.61-8.19,17.13-10.53s13.17-3.51,19.97-3.51,12.95.86,17.8,2.59c4.85,1.73,8.77,4.4,11.78,8.02,3.01,3.62,5.21,8.19,6.6,13.7,1.39,5.52,2.09,12.06,2.09,19.64v41.95h-25.07v-8.86h-.5c-2.12,3.46-5.32,6.13-9.61,8.02-4.29,1.89-8.94,2.84-13.95,2.84-3.34,0-6.8-.45-10.36-1.34-3.57-.89-6.83-2.34-9.78-4.35-2.95-2-5.38-4.68-7.27-8.02-1.9-3.34-2.84-7.46-2.84-12.37,0-6.02,1.64-10.86,4.93-14.54,3.29-3.68,7.52-6.52,12.7-8.52s10.95-3.34,17.3-4.01c6.35-.67,12.53-1,18.55-1v-1.34c0-4.12-1.45-7.16-4.34-9.11-2.9-1.95-6.46-2.92-10.7-2.92-3.9,0-7.66.84-11.28,2.51-3.62,1.67-6.71,3.68-9.27,6.02l-13.87-14.87ZM474.51,123.56h-3.51c-3.01,0-6.04.14-9.11.42-3.07.28-5.79.81-8.19,1.59-2.4.78-4.37,1.92-5.93,3.43-1.56,1.5-2.34,3.48-2.34,5.93,0,1.56.36,2.9,1.09,4.01.72,1.12,1.64,2.01,2.76,2.67,1.11.67,2.39,1.14,3.84,1.42,1.45.28,2.84.42,4.18.42,5.57,0,9.83-1.53,12.78-4.6,2.95-3.06,4.43-7.21,4.43-12.45v-2.84Z"/>
      </g>
      <g>
        <path class="cls-2" d="M658.41,118.38c0,6.8-1.23,12.95-3.68,18.47-2.45,5.51-5.79,10.19-10.03,14.04-4.24,3.84-9.14,6.83-14.71,8.94-5.57,2.11-11.53,3.17-17.88,3.17s-12.17-1.06-17.8-3.17c-5.63-2.12-10.53-5.1-14.71-8.94s-7.49-8.52-9.94-14.04c-2.45-5.52-3.68-11.67-3.68-18.47s1.22-12.92,3.68-18.38c2.45-5.46,5.77-10.08,9.94-13.87,4.18-3.79,9.08-6.68,14.71-8.69,5.62-2.01,11.56-3.01,17.8-3.01s12.31,1,17.88,3.01c5.57,2,10.47,4.9,14.71,8.69,4.23,3.79,7.58,8.41,10.03,13.87,2.45,5.46,3.68,11.59,3.68,18.38ZM632,118.38c0-2.67-.45-5.29-1.34-7.85-.89-2.56-2.17-4.82-3.84-6.77-1.67-1.95-3.73-3.54-6.18-4.76-2.45-1.22-5.29-1.84-8.52-1.84s-6.07.61-8.52,1.84c-2.45,1.23-4.49,2.82-6.1,4.76-1.62,1.95-2.84,4.21-3.68,6.77-.84,2.56-1.25,5.18-1.25,7.85s.42,5.29,1.25,7.85c.83,2.56,2.09,4.88,3.76,6.94,1.67,2.06,3.73,3.71,6.18,4.93,2.45,1.23,5.29,1.84,8.52,1.84s6.07-.61,8.52-1.84c2.45-1.22,4.51-2.87,6.18-4.93,1.67-2.06,2.92-4.37,3.76-6.94.84-2.56,1.25-5.18,1.25-7.85Z"/>
        <path class="cls-2" d="M666.09,160.32V33.98h27.91v126.34h-27.91Z"/>
        <path class="cls-2" d="M794.94,160.32h-33.92l-27.24-39.94h-.5v39.94h-27.57V33.98h27.57v76.87h.5l26.57-33.76h33.26l-32.09,37.6,33.42,45.62Z"/>
        <path class="cls-2" d="M849.59,101.67c-2.23-2.12-4.85-3.9-7.85-5.35-3.01-1.45-6.18-2.17-9.53-2.17-2.56,0-4.93.5-7.1,1.5-2.17,1-3.26,2.73-3.26,5.18s1.2,4.01,3.59,5.01c2.39,1,6.27,2.12,11.61,3.34,3.12.67,6.27,1.62,9.44,2.84,3.17,1.23,6.04,2.84,8.61,4.85,2.56,2,4.62,4.46,6.18,7.35,1.56,2.9,2.34,6.35,2.34,10.36,0,5.24-1.06,9.67-3.17,13.29-2.12,3.62-4.88,6.55-8.27,8.77-3.4,2.23-7.21,3.84-11.45,4.85-4.24,1-8.47,1.5-12.7,1.5-6.8,0-13.45-1.09-19.97-3.26s-11.95-5.37-16.29-9.61l15.38-16.21c2.45,2.67,5.46,4.9,9.02,6.68,3.56,1.78,7.35,2.67,11.36,2.67,2.23,0,4.43-.53,6.6-1.59,2.17-1.06,3.26-2.92,3.26-5.6s-1.34-4.46-4.01-5.68c-2.67-1.22-6.85-2.51-12.53-3.84-2.9-.67-5.79-1.56-8.69-2.67-2.9-1.11-5.49-2.62-7.77-4.51-2.29-1.89-4.15-4.23-5.6-7.02-1.45-2.78-2.17-6.13-2.17-10.03,0-5.01,1.06-9.28,3.18-12.79,2.11-3.51,4.85-6.38,8.19-8.61,3.34-2.23,7.04-3.87,11.11-4.93,4.07-1.06,8.1-1.59,12.12-1.59,6.24,0,12.34.98,18.3,2.92,5.96,1.95,11,4.88,15.12,8.77l-15.04,15.54Z"/>
      </g>
      <path class="cls-2" d="M589.76,32.47v24.17h-54.47v32.29h25.72v24.36h-25.72v46.55h-26.54V32.47h81.02Z"/>
    </g>
  </g>
</svg>